<?xml version="1.0" encoding="UTF-8"?>
<!DOCTYPE svg PUBLIC "-//W3C//DTD SVG 1.1//EN" "http://www.w3.org/Graphics/SVG/1.1/DTD/svg11.dtd">
<!-- Creator: CorelDRAW -->
<svg xmlns="http://www.w3.org/2000/svg" xml:space="preserve" width="20.32mm" height="5.08mm" version="1.1" style="shape-rendering:geometricPrecision; text-rendering:geometricPrecision; image-rendering:optimizeQuality; fill-rule:evenodd; clip-rule:evenodd"
viewBox="0 0 345.28 86.32"
 xmlns:xlink="http://www.w3.org/1999/xlink"
 xmlns:xodm="http://www.corel.com/coreldraw/odm/2003">
 <defs>
  <style type="text/css">
   <![CDATA[
    .fil0 {fill:none}
    .fil2 {fill:url(#id0)}
    .fil3 {fill:url(#id1)}
    .fil1 {fill:url(#id2)}
    .fil4 {fill:url(#id3)}
   ]]>
  </style>
  <linearGradient id="id0" gradientUnits="userSpaceOnUse" x1="86.36" y1="28.85" x2="2.64" y2="86.73">
   <stop offset="0" style="stop-opacity:1; stop-color:#6633FF"/>
   <stop offset="1" style="stop-opacity:1; stop-color:black"/>
  </linearGradient>
  <linearGradient id="id1" gradientUnits="userSpaceOnUse" xlink:href="#id0" x1="74.93" y1="6.19" x2="61.99" y2="49.63">
  </linearGradient>
  <linearGradient id="id2" gradientUnits="userSpaceOnUse" xlink:href="#id0" x1="106.57" y1="-41.38" x2="49.92" y2="153.19">
  </linearGradient>
  <radialGradient id="id3" gradientUnits="userSpaceOnUse" gradientTransform="matrix(2.1252 -0.8787 -2.17272 -0.954464 22 155)" cx="71.61" cy="47.15" r="196.14" fx="71.61" fy="47.15">
   <stop offset="0" style="stop-opacity:1; stop-color:#009933"/>
   <stop offset="0.0392157" style="stop-opacity:1; stop-color:#4DCC19"/>
   <stop offset="1" style="stop-opacity:1; stop-color:#99FF00"/>
  </radialGradient>
 </defs>
 <g id="Camada_x0020_1">
  <metadata id="CorelCorpID_0Corel-Layer"/>
  <rect class="fil0" x="-0" y="-0" width="345.28" height="86.32"/>
  <g id="_2872342462400">
   <path class="fil1" d="M167.69 61.97l0.38 -0.42c0.83,0.96 1.89,1.44 3.19,1.44 0.48,0 0.93,-0.06 1.36,-0.18 0.43,-0.12 0.81,-0.35 1.15,-0.69 0.34,-0.34 0.5,-0.75 0.5,-1.25 0,-0.26 -0.06,-0.5 -0.17,-0.71 -0.11,-0.21 -0.25,-0.38 -0.4,-0.51 -0.16,-0.13 -0.38,-0.26 -0.66,-0.38 -0.28,-0.12 -0.53,-0.21 -0.74,-0.27 -0.21,-0.06 -0.5,-0.14 -0.86,-0.24 -1.12,-0.29 -1.88,-0.55 -2.27,-0.78 -0.69,-0.4 -1.04,-0.98 -1.04,-1.74 0,-0.73 0.32,-1.33 0.95,-1.79 0.64,-0.46 1.37,-0.69 2.2,-0.69 1.12,0 2.14,0.37 3.05,1.1l-0.37 0.44c-0.78,-0.65 -1.67,-0.98 -2.68,-0.98 -0.62,0 -1.19,0.17 -1.73,0.5 -0.54,0.33 -0.81,0.8 -0.81,1.41 0,0.2 0.03,0.39 0.1,0.56 0.06,0.17 0.18,0.31 0.34,0.45 0.17,0.13 0.31,0.24 0.42,0.32 0.12,0.08 0.32,0.17 0.61,0.27 0.29,0.1 0.5,0.16 0.62,0.2 0.12,0.03 0.36,0.1 0.72,0.2 0.43,0.12 0.76,0.21 1,0.28 0.24,0.06 0.53,0.17 0.87,0.32 0.34,0.15 0.6,0.31 0.78,0.47 0.18,0.17 0.33,0.38 0.47,0.65 0.14,0.27 0.2,0.58 0.2,0.93 0,0.85 -0.36,1.51 -1.08,1.98 -0.72,0.47 -1.56,0.7 -2.54,0.7 -1.44,0 -2.63,-0.52 -3.59,-1.57l0 -0zm-12.08 -41.22l2.37 -3.12c0.15,-0.19 0.36,-0.29 0.6,-0.29l2.68 0c0.32,0 0.6,0.18 0.72,0.48 0.12,0.3 0.06,0.62 -0.17,0.85l-3.1 3.12c-0.15,0.15 -0.34,0.23 -0.55,0.23l-1.96 0c-0.31,0 -0.57,-0.17 -0.71,-0.45 -0.13,-0.28 -0.08,-0.58 0.1,-0.83zm5.13 9.37c-1.32,-1.31 -3.06,-1.97 -5.22,-1.97 -2.16,0 -4,0.79 -5.52,2.37 -1.52,1.58 -2.32,3.56 -2.39,5.94 -0.06,1.98 0.56,3.63 1.87,4.95 1.31,1.31 3.01,1.97 5.12,1.97 2.18,0 4.05,-0.79 5.59,-2.37 1.54,-1.58 2.35,-3.55 2.43,-5.9 0.06,-2.01 -0.57,-3.67 -1.89,-4.98l0 0zm-18.32 6.68c0.12,-3.75 1.45,-6.91 4.01,-9.47 2.55,-2.56 5.67,-3.84 9.35,-3.84 3.68,0 6.63,1.05 8.86,3.15 2.23,2.1 3.29,4.82 3.19,8.18 -0.12,3.7 -1.46,6.84 -4.04,9.4 -2.58,2.56 -5.71,3.84 -9.39,3.84 -3.58,0 -6.49,-1.07 -8.75,-3.2 -2.25,-2.13 -3.33,-4.82 -3.23,-8.06l0 0zm125.76 9.68l14.65 -22.28c0.15,-0.23 0.38,-0.35 0.65,-0.35l4.06 0c0.37,0 0.69,0.25 0.76,0.62l4.71 22.27c0.05,0.24 -0,0.46 -0.16,0.65 -0.15,0.19 -0.36,0.29 -0.61,0.29l-3.67 0c-0.37,0 -0.69,-0.25 -0.76,-0.62l-0.54 -2.55c-0.08,-0.36 -0.39,-0.62 -0.76,-0.62l-11.01 0c-0.27,0 -0.5,0.13 -0.65,0.35l-2.01 3.08c-0.15,0.23 -0.38,0.35 -0.65,0.35l-3.35 0c-0.3,0 -0.55,-0.15 -0.69,-0.41 -0.14,-0.26 -0.13,-0.55 0.03,-0.8l0 0zm10.98 -6.63l6.22 0c0.24,0 0.44,-0.1 0.6,-0.28 0.15,-0.18 0.21,-0.4 0.17,-0.64l-1.39 -7.66c-0.06,-0.32 -0.3,-0.56 -0.62,-0.63 -0.32,-0.06 -0.63,0.07 -0.81,0.35l-4.83 7.66c-0.16,0.25 -0.16,0.54 -0.02,0.79 0.14,0.26 0.39,0.4 0.68,0.4l0 -0zm-33.28 6.88l5 -22.27c0.08,-0.36 0.39,-0.61 0.76,-0.61l3.53 0c0.25,0 0.46,0.1 0.61,0.29 0.15,0.19 0.21,0.42 0.15,0.66l-3.94 17.52c-0.05,0.24 -0,0.47 0.15,0.66 0.15,0.19 0.36,0.29 0.61,0.29l11.81 0c0.24,0 0.45,0.1 0.61,0.29 0.15,0.19 0.21,0.42 0.15,0.66l-0.64 2.85c-0.08,0.36 -0.39,0.61 -0.76,0.61l-17.29 0c-0.24,0 -0.46,-0.1 -0.61,-0.29 -0.15,-0.19 -0.21,-0.42 -0.15,-0.66l0.01 0zm-13.69 1.32c-2.94,0 -5.17,-0.68 -6.69,-2.04 -1.51,-1.36 -2.24,-3.08 -2.17,-5.17 0.04,-1.25 0.16,-2.34 0.36,-3.27l2.97 -13.11c0.08,-0.36 0.39,-0.61 0.76,-0.61l3.54 0c0.25,0 0.46,0.1 0.61,0.29 0.15,0.19 0.21,0.42 0.15,0.66l-2.84 12.66c-0.2,0.83 -0.31,1.57 -0.33,2.21 -0.03,1.01 0.27,1.87 0.91,2.6 0.63,0.74 1.61,1.1 2.93,1.1 3.57,0 5.74,-1.77 6.51,-5.3l3.09 -13.62c0.08,-0.36 0.39,-0.61 0.76,-0.61l3.53 0c0.25,0 0.46,0.1 0.61,0.29 0.15,0.19 0.21,0.42 0.15,0.66l-3.03 13.51c-0.68,3.01 -2.05,5.39 -4.1,7.13 -2.06,1.74 -4.63,2.61 -7.72,2.61l-0.01 0zm-39.2 -1.32l5 -22.27c0.08,-0.36 0.39,-0.61 0.76,-0.61l3.2 0c0.31,0 0.58,0.18 0.71,0.46l4.43 9.96c0.11,0.24 0.31,0.4 0.58,0.45 0.27,0.05 0.51,-0.03 0.7,-0.23l10.03 -10.4c0.15,-0.16 0.34,-0.24 0.56,-0.24l3.15 0c0.24,0 0.46,0.1 0.61,0.29 0.15,0.19 0.21,0.42 0.15,0.66l-5 22.27c-0.08,0.36 -0.39,0.61 -0.76,0.61l-3.53 0c-0.25,0 -0.46,-0.1 -0.61,-0.29 -0.15,-0.19 -0.21,-0.42 -0.15,-0.66l2.58 -11.46c0.08,-0.34 -0.08,-0.69 -0.39,-0.86 -0.31,-0.17 -0.68,-0.11 -0.93,0.14l-7.4 7.57c-0.18,0.19 -0.43,0.27 -0.69,0.22 -0.26,-0.04 -0.46,-0.2 -0.58,-0.44l-3.23 -6.85c-0.14,-0.31 -0.45,-0.48 -0.79,-0.44 -0.34,0.04 -0.6,0.27 -0.68,0.6l-2.67 11.85c-0.08,0.36 -0.39,0.61 -0.76,0.61l-3.53 0c-0.25,0 -0.46,-0.1 -0.61,-0.29 -0.15,-0.19 -0.21,-0.42 -0.15,-0.66l0 0zm-23.99 0l5.01 -22.27c0.08,-0.36 0.39,-0.61 0.76,-0.61l8.71 0c2.96,0 5.24,0.7 6.82,2.1 1.59,1.4 2.35,3.2 2.28,5.41 -0.06,1.91 -0.64,3.75 -1.73,5.5 -1.1,1.75 -2.79,3.14 -5.08,4.17l2.88 5.52c0.13,0.25 0.12,0.53 -0.02,0.77 -0.15,0.24 -0.39,0.38 -0.67,0.38l-4.03 0c-0.31,0 -0.57,-0.17 -0.7,-0.45l-2.41 -5.07c-0.83,0.05 -1.99,0.07 -3.49,0.07l-1.55 0c-0.37,0 -0.68,0.25 -0.76,0.61l-0.95 4.22c-0.08,0.36 -0.39,0.61 -0.76,0.61l-3.53 0c-0.24,0 -0.46,-0.1 -0.61,-0.29 -0.15,-0.19 -0.21,-0.42 -0.15,-0.66zm8.11 -8.91l3.52 0c1.8,0 3.3,-0.56 4.53,-1.69 1.22,-1.13 1.86,-2.49 1.91,-4.08 0.03,-1.13 -0.31,-2.04 -1.04,-2.74 -0.73,-0.7 -1.73,-1.05 -3,-1.05l-4.12 0c-0.37,0 -0.68,0.25 -0.76,0.61l-1.8 8c-0.05,0.24 -0,0.47 0.15,0.66 0.15,0.19 0.36,0.29 0.61,0.29l0 -0zm-58.09 8.91l5.01 -22.27c0.08,-0.36 0.39,-0.61 0.76,-0.61l16.18 0c0.24,0 0.46,0.1 0.61,0.29 0.15,0.19 0.21,0.42 0.15,0.66l-0.64 2.85c-0.08,0.36 -0.39,0.61 -0.76,0.61l-11.4 0c-0.37,0 -0.68,0.25 -0.76,0.61l-0.74 3.29c-0.05,0.24 -0,0.47 0.15,0.66 0.15,0.19 0.36,0.29 0.61,0.29l8.86 0c0.24,0 0.46,0.1 0.61,0.29 0.15,0.19 0.21,0.42 0.15,0.66l-0.63 2.82c-0.08,0.36 -0.39,0.61 -0.76,0.61l-9.57 0c-0.37,0 -0.68,0.25 -0.76,0.61l-2.02 8.97c-0.08,0.36 -0.39,0.61 -0.76,0.61l-3.53 0c-0.25,0 -0.46,-0.1 -0.61,-0.29 -0.15,-0.19 -0.21,-0.42 -0.15,-0.66l-0 0.01zm168.61 15.63l0.37 -0.41c0.58,0.7 1.33,1.06 2.27,1.06 0.65,0 1.18,-0.14 1.58,-0.43 0.4,-0.29 0.6,-0.64 0.6,-1.06 0,-0.23 -0.05,-0.42 -0.16,-0.59 -0.11,-0.17 -0.27,-0.31 -0.5,-0.42 -0.22,-0.11 -0.43,-0.2 -0.63,-0.25 -0.2,-0.05 -0.45,-0.12 -0.77,-0.21 -0.35,-0.1 -0.6,-0.16 -0.75,-0.21 -0.15,-0.04 -0.37,-0.12 -0.64,-0.23 -0.28,-0.11 -0.48,-0.22 -0.59,-0.34 -0.12,-0.11 -0.23,-0.27 -0.34,-0.47 -0.11,-0.2 -0.16,-0.43 -0.16,-0.68 0,-0.55 0.24,-1 0.73,-1.35 0.48,-0.35 1.03,-0.53 1.63,-0.53 0.87,0 1.64,0.28 2.31,0.83l-0.35 0.4c-0.57,-0.47 -1.21,-0.7 -1.92,-0.7 -0.5,0 -0.93,0.13 -1.28,0.4 -0.36,0.27 -0.53,0.58 -0.53,0.95 0,0.18 0.04,0.33 0.12,0.47 0.08,0.14 0.18,0.25 0.28,0.33 0.1,0.08 0.27,0.17 0.48,0.25 0.22,0.08 0.39,0.14 0.51,0.17 0.12,0.03 0.32,0.09 0.61,0.16 0.32,0.08 0.58,0.15 0.76,0.19 0.18,0.05 0.4,0.13 0.66,0.24 0.25,0.11 0.45,0.23 0.59,0.36 0.14,0.13 0.25,0.29 0.36,0.5 0.1,0.21 0.15,0.44 0.15,0.7 0,0.64 -0.27,1.14 -0.8,1.5 -0.53,0.37 -1.17,0.55 -1.93,0.55 -1.08,0 -1.97,-0.39 -2.67,-1.17l0 0.01zm-2.24 1.02l0 -7 0.56 0 0 7 -0.56 0zm-0.03 -8.63c-0.09,-0.09 -0.13,-0.2 -0.13,-0.32 0,-0.13 0.04,-0.24 0.13,-0.32 0.09,-0.09 0.2,-0.13 0.32,-0.13 0.13,0 0.23,0.04 0.32,0.13 0.09,0.09 0.13,0.2 0.13,0.32 0,0.13 -0.04,0.23 -0.13,0.32 -0.09,0.09 -0.2,0.13 -0.32,0.13 -0.13,0 -0.23,-0.05 -0.32,-0.13zm-7.84 4.85l5.58 0c-0.06,-0.79 -0.35,-1.46 -0.88,-2.02 -0.53,-0.55 -1.15,-0.83 -1.88,-0.83 -0.73,0 -1.37,0.28 -1.91,0.83 -0.54,0.55 -0.85,1.22 -0.92,2.02l0 0zm0.47 2.86c-0.7,-0.71 -1.06,-1.57 -1.06,-2.58 0,-1.01 0.33,-1.87 1,-2.58 0.67,-0.71 1.47,-1.07 2.41,-1.07 0.92,0 1.71,0.35 2.37,1.06 0.66,0.71 0.99,1.55 0.99,2.53l-0.02 0.31 -6.17 0c0.07,0.81 0.39,1.49 0.96,2.04 0.57,0.55 1.25,0.83 2.04,0.83 0.93,0 1.7,-0.35 2.31,-1.04l0.38 0.37c-0.75,0.8 -1.65,1.2 -2.69,1.2 -0.99,0 -1.83,-0.36 -2.54,-1.07zm-9.29 0.92l0 -9.64 0.56 0 0 4.28c0.27,-0.56 0.66,-0.99 1.17,-1.31 0.51,-0.32 1.08,-0.48 1.71,-0.48 0.95,0 1.78,0.36 2.45,1.07 0.68,0.71 1.02,1.57 1.02,2.58 0,1.01 -0.34,1.86 -1.02,2.58 -0.68,0.71 -1.5,1.07 -2.45,1.07 -0.64,0 -1.22,-0.16 -1.72,-0.48 -0.5,-0.32 -0.89,-0.75 -1.16,-1.31l0 1.64 -0.56 0 -0 0zm1.39 -5.71c-0.56,0.61 -0.83,1.34 -0.83,2.21 0,0.86 0.28,1.59 0.83,2.2 0.56,0.61 1.24,0.92 2.05,0.92 0.81,0 1.49,-0.31 2.05,-0.92 0.56,-0.61 0.83,-1.34 0.83,-2.2 0,-0.86 -0.28,-1.59 -0.83,-2.21 -0.56,-0.61 -1.24,-0.92 -2.05,-0.92 -0.81,0 -1.5,0.31 -2.05,0.92zm-9.34 4.78c-0.68,-0.71 -1.02,-1.57 -1.02,-2.58 0,-1.01 0.34,-1.87 1.02,-2.58 0.68,-0.71 1.5,-1.07 2.45,-1.07 0.64,0 1.2,0.16 1.71,0.48 0.5,0.32 0.9,0.75 1.18,1.31l0 -1.64 0.56 0 0 7 -0.56 0 0 -1.64c-0.28,0.56 -0.68,0.99 -1.18,1.31 -0.5,0.32 -1.07,0.48 -1.71,0.48 -0.96,0 -1.78,-0.36 -2.45,-1.07l0 -0zm0.4 -4.78c-0.56,0.61 -0.83,1.34 -0.83,2.21 0,0.86 0.28,1.59 0.83,2.2 0.56,0.61 1.24,0.92 2.05,0.92 0.8,0 1.48,-0.3 2.04,-0.89 0.56,-0.59 0.84,-1.34 0.84,-2.23 0,-0.86 -0.28,-1.59 -0.83,-2.21 -0.56,-0.61 -1.24,-0.92 -2.05,-0.92 -0.81,0 -1.49,0.31 -2.05,0.92zm1.58 -2.54l1.06 -1.7 0.78 0 -1.22 1.7 -0.62 0 0 0zm-7.29 6.07l0 -4.29 -1.07 0 0 -0.53 1.07 0 0 -1.74 0.56 0 0 1.74 2.71 0 0 0.53 -2.71 0 0 4.29c0,1.2 0.42,1.8 1.26,1.8 0.23,0 0.45,-0.04 0.67,-0.12 0.22,-0.08 0.38,-0.16 0.48,-0.23l0.16 -0.1 0.25 0.45c-0.44,0.35 -0.96,0.53 -1.55,0.53 -0.53,0 -0.96,-0.18 -1.3,-0.53 -0.34,-0.35 -0.51,-0.95 -0.51,-1.8zm-7.88 2.18l0 -7 0.56 0 0 1.27c0.52,-0.95 1.36,-1.42 2.52,-1.42 0.8,0 1.44,0.23 1.92,0.68 0.48,0.45 0.72,1.09 0.72,1.9l0 4.57 -0.56 0 0 -4.41c0,-1.47 -0.72,-2.21 -2.15,-2.21 -0.64,0 -1.21,0.23 -1.71,0.69 -0.49,0.46 -0.74,1.03 -0.74,1.71l0 4.22 -0.56 0 0 -0zm-7.91 -0.92c-0.71,-0.71 -1.07,-1.57 -1.07,-2.58 0,-1.01 0.36,-1.87 1.07,-2.58 0.71,-0.71 1.57,-1.07 2.58,-1.07 1.01,0 1.87,0.36 2.58,1.07 0.71,0.71 1.07,1.57 1.07,2.58 0,1.01 -0.36,1.86 -1.07,2.58 -0.71,0.71 -1.57,1.07 -2.58,1.07 -1.01,0 -1.86,-0.36 -2.58,-1.07zm0.41 -4.78c-0.6,0.61 -0.89,1.34 -0.89,2.21 0,0.86 0.3,1.59 0.89,2.2 0.59,0.61 1.32,0.92 2.17,0.92 0.85,0 1.57,-0.31 2.17,-0.92 0.59,-0.61 0.89,-1.34 0.89,-2.2 0,-0.86 -0.3,-1.59 -0.89,-2.21 -0.6,-0.61 -1.32,-0.92 -2.17,-0.92 -0.85,0 -1.57,0.31 -2.17,0.92zm-9.49 4.42c-0.96,-0.96 -1.44,-2.11 -1.44,-3.46 0,-1.35 0.48,-2.5 1.43,-3.46 0.95,-0.95 2.1,-1.43 3.45,-1.43 1.32,0 2.45,0.46 3.4,1.38l-0.41 0.41c-0.85,-0.82 -1.84,-1.23 -2.98,-1.23 -1.18,0 -2.19,0.42 -3.02,1.27 -0.84,0.85 -1.25,1.87 -1.25,3.06 0,1.19 0.42,2.21 1.25,3.06 0.83,0.85 1.84,1.27 3.02,1.27 1.27,0 2.33,-0.48 3.19,-1.45l0.41 0.42c-0.96,1.06 -2.16,1.58 -3.61,1.58 -1.35,0 -2.5,-0.48 -3.46,-1.44l0 0zm-11.44 0.27l0.37 -0.41c0.58,0.7 1.33,1.06 2.27,1.06 0.65,0 1.18,-0.14 1.58,-0.43 0.4,-0.29 0.6,-0.64 0.6,-1.06 0,-0.23 -0.05,-0.42 -0.16,-0.59 -0.11,-0.17 -0.27,-0.31 -0.5,-0.42 -0.23,-0.11 -0.43,-0.2 -0.63,-0.25 -0.2,-0.05 -0.45,-0.12 -0.77,-0.21 -0.35,-0.1 -0.6,-0.16 -0.75,-0.21 -0.15,-0.04 -0.37,-0.12 -0.64,-0.23 -0.28,-0.11 -0.47,-0.22 -0.59,-0.34 -0.12,-0.11 -0.23,-0.27 -0.34,-0.47 -0.11,-0.2 -0.16,-0.43 -0.16,-0.68 0,-0.55 0.24,-1 0.72,-1.35 0.48,-0.35 1.03,-0.53 1.63,-0.53 0.87,0 1.64,0.28 2.32,0.83l-0.35 0.4c-0.57,-0.47 -1.2,-0.7 -1.92,-0.7 -0.5,0 -0.93,0.13 -1.28,0.4 -0.36,0.27 -0.54,0.58 -0.54,0.95 0,0.18 0.04,0.33 0.12,0.47 0.08,0.14 0.18,0.25 0.28,0.33 0.1,0.08 0.26,0.17 0.48,0.25 0.22,0.08 0.39,0.14 0.51,0.17 0.12,0.03 0.32,0.09 0.61,0.16 0.32,0.08 0.58,0.15 0.76,0.19 0.18,0.05 0.4,0.13 0.66,0.24 0.25,0.11 0.45,0.23 0.58,0.36 0.14,0.13 0.26,0.29 0.36,0.5 0.1,0.21 0.15,0.44 0.15,0.7 0,0.64 -0.27,1.14 -0.8,1.5 -0.53,0.37 -1.17,0.55 -1.93,0.55 -1.08,0 -1.97,-0.39 -2.67,-1.17l0 0.01zm-7.5 -2.75l5.58 0c-0.06,-0.79 -0.35,-1.46 -0.88,-2.02 -0.53,-0.55 -1.15,-0.83 -1.88,-0.83 -0.73,0 -1.37,0.28 -1.91,0.83 -0.54,0.55 -0.85,1.22 -0.92,2.02l0 0zm0.47 2.86c-0.7,-0.71 -1.05,-1.57 -1.05,-2.58 0,-1.01 0.33,-1.87 1,-2.58 0.67,-0.71 1.47,-1.07 2.41,-1.07 0.92,0 1.71,0.35 2.37,1.06 0.66,0.71 0.99,1.55 0.99,2.53l-0.02 0.31 -6.17 0c0.07,0.81 0.39,1.49 0.96,2.04 0.57,0.55 1.25,0.83 2.04,0.83 0.93,0 1.7,-0.35 2.31,-1.04l0.38 0.37c-0.75,0.8 -1.65,1.2 -2.7,1.2 -0.99,0 -1.83,-0.36 -2.54,-1.07zm-8.6 0c-0.71,-0.71 -1.07,-1.57 -1.07,-2.58 0,-1.01 0.36,-1.87 1.07,-2.58 0.71,-0.71 1.57,-1.07 2.58,-1.07 1.01,0 1.87,0.36 2.58,1.07 0.71,0.71 1.07,1.57 1.07,2.58 0,1.01 -0.36,1.86 -1.07,2.58 -0.71,0.71 -1.57,1.07 -2.58,1.07 -1.01,0 -1.86,-0.36 -2.58,-1.07zm0.41 -4.78c-0.6,0.61 -0.89,1.34 -0.89,2.21 0,0.86 0.3,1.59 0.89,2.2 0.59,0.61 1.32,0.92 2.17,0.92 0.85,0 1.57,-0.31 2.17,-0.92 0.59,-0.61 0.89,-1.34 0.89,-2.2 0,-0.86 -0.3,-1.59 -0.89,-2.21 -0.6,-0.61 -1.32,-0.92 -2.17,-0.92 -0.85,0 -1.57,0.31 -2.17,0.92zm0.6 -2.56c0,-0.33 0.08,-0.62 0.24,-0.85 0.16,-0.23 0.36,-0.35 0.62,-0.35 0.2,0 0.46,0.1 0.78,0.31 0.31,0.21 0.53,0.31 0.64,0.31 0.13,0 0.22,-0.06 0.29,-0.19 0.07,-0.12 0.1,-0.27 0.1,-0.45l0.48 0c0,0.33 -0.08,0.62 -0.23,0.85 -0.16,0.23 -0.36,0.35 -0.62,0.35 -0.2,0 -0.45,-0.1 -0.78,-0.31 -0.32,-0.21 -0.54,-0.31 -0.64,-0.31 -0.13,0 -0.23,0.06 -0.29,0.18 -0.07,0.12 -0.1,0.27 -0.1,0.45l-0.48 0 -0 0zm-7.43 10.93l0.22 -0.37c0.35,0.23 0.77,0.35 1.24,0.35 0.36,0 0.65,-0.08 0.86,-0.25 0.21,-0.17 0.31,-0.36 0.31,-0.57 0,-0.38 -0.26,-0.57 -0.78,-0.57 -0.2,0 -0.41,0.04 -0.62,0.12 -0.2,0.08 -0.36,0.17 -0.46,0.27l-0.39 -0.19 0.79 -1.35c-0.93,-0.09 -1.71,-0.48 -2.34,-1.17 -0.63,-0.69 -0.94,-1.51 -0.94,-2.45 0,-1.01 0.36,-1.87 1.07,-2.58 0.71,-0.71 1.57,-1.07 2.58,-1.07 0.97,0 1.81,0.34 2.52,1.02l-0.38 0.38c-0.61,-0.59 -1.32,-0.88 -2.14,-0.88 -0.85,0 -1.57,0.31 -2.17,0.92 -0.59,0.61 -0.89,1.34 -0.89,2.21 0,0.86 0.3,1.59 0.89,2.2 0.6,0.61 1.32,0.92 2.17,0.92 0.92,0 1.69,-0.35 2.31,-1.04l0.38 0.37c-0.71,0.77 -1.59,1.17 -2.62,1.2l-0.51 0.92c0.23,-0.13 0.5,-0.2 0.8,-0.2 0.33,0 0.62,0.08 0.86,0.23 0.24,0.16 0.36,0.39 0.36,0.7 0,0.39 -0.17,0.7 -0.5,0.92 -0.34,0.23 -0.73,0.34 -1.18,0.34 -0.58,0 -1.06,-0.13 -1.45,-0.39l0 0zm-9.35 -5.1l0 -4.57 0.56 0 0 4.41c0,1.47 0.72,2.21 2.15,2.21 0.64,0 1.18,-0.23 1.63,-0.68 0.45,-0.45 0.67,-1.03 0.67,-1.72l0 -4.22 0.56 0 0 7 -0.56 0 0 -1.19c-0.49,0.89 -1.28,1.33 -2.37,1.33 -0.8,0 -1.44,-0.23 -1.92,-0.68 -0.48,-0.46 -0.72,-1.09 -0.72,-1.9l0 0zm-2.46 2.43l0 -9.64 0.56 0 0 9.64 -0.56 0zm-7.91 -0.92c-0.71,-0.71 -1.07,-1.57 -1.07,-2.58 0,-1.01 0.36,-1.87 1.07,-2.58 0.71,-0.71 1.57,-1.07 2.58,-1.07 1.01,0 1.87,0.36 2.58,1.07 0.71,0.71 1.07,1.57 1.07,2.58 0,1.01 -0.36,1.86 -1.07,2.58 -0.71,0.71 -1.57,1.07 -2.58,1.07 -1.01,0 -1.86,-0.36 -2.58,-1.07zm0.41 -4.78c-0.6,0.61 -0.89,1.34 -0.89,2.21 0,0.86 0.3,1.59 0.89,2.2 0.59,0.61 1.32,0.92 2.17,0.92 0.85,0 1.57,-0.31 2.17,-0.92 0.59,-0.61 0.89,-1.34 0.89,-2.2 0,-0.86 -0.3,-1.59 -0.89,-2.21 -0.6,-0.61 -1.32,-0.92 -2.17,-0.92 -0.85,0 -1.57,0.31 -2.17,0.92z"/>
   <path class="fil2" d="M65.15 17.35l8.08 0c0.98,0 1.87,0.44 2.54,1.23 0.66,0.8 0.91,1.73 0.71,2.66l-10.3 45.77c-0.27,1.2 -1.25,1.96 -2.52,1.96l-8.08 0c-0.98,0 -1.87,-0.44 -2.54,-1.23 -0.66,-0.8 -0.91,-1.73 -0.71,-2.66l10.3 -45.77c0.27,-1.2 1.25,-1.96 2.52,-1.96z"/>
   <path class="fil3" d="M107.64 28.87l1.72 -7.63c0.21,-0.92 -0.04,-1.86 -0.71,-2.66 -0.66,-0.8 -1.56,-1.23 -2.54,-1.23l-23.31 0c-1.27,0 -2.25,0.77 -2.52,1.96l-1.72 7.64c-0.21,0.92 0.04,1.86 0.71,2.66 0.66,0.8 1.56,1.23 2.54,1.23l23.31 -0c1.27,0 2.25,-0.77 2.52,-1.96l0 -0z"/>
   <path class="fil4" d="M103.85 45.72l1.72 -7.64c0.21,-0.92 -0.04,-1.86 -0.71,-2.66 -0.66,-0.8 -1.56,-1.23 -2.54,-1.23l-23.31 0c-1.27,0 -2.25,0.77 -2.52,1.97l-1.72 7.63c-0.21,0.92 0.04,1.86 0.71,2.66 0.66,0.8 1.56,1.23 2.54,1.23l23.31 -0c1.27,0 2.25,-0.77 2.52,-1.96z"/>
  </g>
 </g>
</svg>
