<?xml version="1.0" encoding="UTF-8"?>
<!DOCTYPE svg PUBLIC "-//W3C//DTD SVG 1.1//EN" "http://www.w3.org/Graphics/SVG/1.1/DTD/svg11.dtd">
<!-- Creator: CorelDRAW -->
<svg xmlns="http://www.w3.org/2000/svg" xml:space="preserve" width="179.689mm" height="38.5233mm" version="1.1" style="shape-rendering:geometricPrecision; text-rendering:geometricPrecision; image-rendering:optimizeQuality; fill-rule:evenodd; clip-rule:evenodd"
viewBox="0 0 1402.1 300.6"
 xmlns:xlink="http://www.w3.org/1999/xlink"
 xmlns:xodm="http://www.corel.com/coreldraw/odm/2003">
 <defs>
  <style type="text/css">
   <![CDATA[
    .fil1 {fill:url(#id0)}
    .fil0 {fill:url(#id1)}
    .fil2 {fill:url(#id2)}
    .fil3 {fill:url(#id3)}
   ]]>
  </style>
  <linearGradient id="id0" gradientUnits="userSpaceOnUse" x1="200.53" y1="67.06" x2="-293.52" y2="404.87">
   <stop offset="0" style="stop-opacity:1; stop-color:#6633FF"/>
   <stop offset="1" style="stop-opacity:1; stop-color:black"/>
  </linearGradient>
  <linearGradient id="id1" gradientUnits="userSpaceOnUse" xlink:href="#id0" x1="316.99" y1="-342.92" x2="-14.15" y2="791.82">
  </linearGradient>
  <linearGradient id="id2" gradientUnits="userSpaceOnUse" xlink:href="#id0" x1="131.65" y1="-65.45" x2="55.34" y2="188.79">
  </linearGradient>
  <radialGradient id="id3" gradientUnits="userSpaceOnUse" gradientTransform="matrix(2.14577 -0.879428 -2.19374 -0.955249 256 435)" cx="109.02" cy="173.54" r="90.07" fx="109.02" fy="173.54">
   <stop offset="0" style="stop-opacity:1; stop-color:#009933"/>
   <stop offset="0.0392157" style="stop-opacity:1; stop-color:#4DCC19"/>
   <stop offset="1" style="stop-opacity:1; stop-color:#99FF00"/>
  </radialGradient>
 </defs>
 <g id="Camada_x0020_1">
  <metadata id="CorelCorpID_0Corel-Layer"/>
  <path class="fil0" d="M672.11 259.83l2.22 -2.47c4.83,5.57 11.03,8.36 18.6,8.36 2.79,0 5.43,-0.36 7.93,-1.07 2.5,-0.71 4.73,-2.05 6.7,-4.01 1.96,-1.96 2.94,-4.39 2.94,-7.29 0,-1.52 -0.33,-2.9 -0.98,-4.12 -0.65,-1.22 -1.44,-2.22 -2.35,-2.99 -0.91,-0.77 -2.19,-1.51 -3.84,-2.22 -1.65,-0.71 -3.09,-1.24 -4.28,-1.56 -1.21,-0.34 -2.89,-0.8 -5.02,-1.39 -6.54,-1.71 -10.95,-3.21 -13.22,-4.52 -4.04,-2.33 -6.06,-5.72 -6.06,-10.15 0,-4.27 1.85,-7.74 5.54,-10.41 3.7,-2.67 7.96,-4.01 12.8,-4.01 6.54,0 12.46,2.13 17.74,6.4l-2.13 2.56c-4.55,-3.81 -9.75,-5.72 -15.61,-5.72 -3.58,0 -6.94,0.97 -10.07,2.91 -3.13,1.93 -4.69,4.66 -4.69,8.2 0,1.19 0.18,2.29 0.55,3.26 0.37,0.97 1.04,1.83 2,2.6 0.97,0.77 1.79,1.38 2.47,1.85 0.67,0.45 1.86,0.97 3.57,1.54 1.71,0.57 2.92,0.95 3.63,1.15 0.72,0.2 2.12,0.58 4.21,1.17 2.49,0.68 4.41,1.22 5.79,1.61 1.38,0.37 3.06,1.01 5.05,1.88 2,0.88 3.51,1.79 4.54,2.74 1.02,0.97 1.95,2.23 2.74,3.81 0.8,1.58 1.19,3.38 1.19,5.42 0,4.95 -2.09,8.79 -6.27,11.52 -4.18,2.73 -9.11,4.09 -14.8,4.09 -8.36,0 -15.33,-3.04 -20.9,-9.13zm-70.36 -240l13.81 -18.17c0.85,-1.12 2.1,-1.66 3.51,-1.66l15.64 0c1.87,0 3.47,1.07 4.19,2.8 0.72,1.73 0.35,3.62 -0.97,4.95l-18.04 18.17c-0.88,0.89 -1.97,1.34 -3.22,1.34l-11.41 0c-1.8,0 -3.34,-0.98 -4.11,-2.6 -0.77,-1.62 -0.49,-3.39 0.6,-4.83zm29.89 54.57c-7.69,-7.64 -17.81,-11.46 -30.38,-11.46 -12.57,0 -23.27,4.6 -32.13,13.81 -8.85,9.21 -13.49,20.74 -13.92,34.59 -0.36,11.56 3.27,21.17 10.89,28.81 7.61,7.64 17.56,11.46 29.84,11.46 12.71,0 23.56,-4.61 32.55,-13.82 9,-9.21 13.71,-20.67 14.13,-34.38 0.36,-11.71 -3.3,-21.38 -10.99,-29.02zm-106.69 38.87c0.68,-21.85 8.46,-40.23 23.34,-55.15 14.88,-14.92 33.03,-22.38 54.45,-22.38 21.42,0 38.61,6.11 51.58,18.31 12.97,12.21 19.15,28.09 18.55,47.65 -0.67,21.56 -8.52,39.8 -23.54,54.72 -15.03,14.92 -33.25,22.38 -54.67,22.38 -20.85,0 -37.82,-6.21 -50.93,-18.63 -13.11,-12.42 -19.37,-28.06 -18.78,-46.91zm732.3 56.36l85.29 -129.7c0.87,-1.32 2.22,-2.05 3.8,-2.05l23.64 0c2.17,0 4,1.48 4.44,3.6l27.4 129.7c0.29,1.39 -0.02,2.7 -0.92,3.8 -0.89,1.1 -2.11,1.68 -3.53,1.68l-21.34 0c-2.17,0 -4,-1.48 -4.45,-3.6l-3.14 -14.85c-0.45,-2.12 -2.27,-3.6 -4.45,-3.6l-64.11 0c-1.58,0 -2.94,0.74 -3.81,2.06l-11.7 17.94c-0.86,1.32 -2.22,2.06 -3.81,2.06l-19.53 0c-1.72,0 -3.19,-0.88 -4,-2.39 -0.81,-1.51 -0.74,-3.22 0.2,-4.65zm63.92 -38.58l36.23 0c1.39,0 2.59,-0.56 3.49,-1.63 0.89,-1.07 1.23,-2.35 0.98,-3.72l-8.1 -44.62c-0.34,-1.88 -1.73,-3.29 -3.61,-3.65 -1.88,-0.36 -3.69,0.42 -4.71,2.04l-28.13 44.62c-0.91,1.44 -0.96,3.13 -0.13,4.62 0.82,1.49 2.28,2.35 3.98,2.35zm-193.78 40.08l29.14 -129.7c0.47,-2.1 2.28,-3.55 4.43,-3.55l20.56 0c1.43,0 2.66,0.59 3.55,1.7 0.89,1.12 1.2,2.44 0.88,3.84l-22.94 102c-0.31,1.39 -0.01,2.72 0.88,3.84 0.89,1.11 2.12,1.7 3.55,1.7l68.76 0c1.43,0 2.65,0.59 3.54,1.7 0.89,1.11 1.2,2.44 0.89,3.83l-3.7 16.61c-0.47,2.1 -2.28,3.56 -4.44,3.56l-100.69 0c-1.43,0 -2.66,-0.59 -3.55,-1.7 -0.89,-1.11 -1.2,-2.44 -0.89,-3.84zm-79.69 7.68c-17.13,0 -30.11,-3.96 -38.97,-11.89 -8.82,-7.93 -13.04,-17.96 -12.66,-30.09 0.23,-7.28 0.92,-13.64 2.09,-19.06l17.31 -76.35c0.47,-2.09 2.28,-3.54 4.43,-3.54l20.61 0c1.43,0 2.65,0.59 3.55,1.7 0.89,1.11 1.2,2.44 0.89,3.83l-16.53 73.74c-1.19,4.85 -1.82,9.14 -1.93,12.85 -0.18,5.85 1.59,10.89 5.31,15.17 3.69,4.28 9.4,6.43 17.08,6.43 20.78,0 33.41,-10.28 37.91,-30.88l18.01 -79.31c0.48,-2.09 2.28,-3.54 4.43,-3.54l20.57 0c1.43,0 2.66,0.59 3.55,1.7 0.89,1.11 1.2,2.44 0.89,3.83l-17.65 78.67c-3.97,17.53 -11.93,31.38 -23.88,41.51 -11.99,10.14 -26.96,15.21 -44.98,15.21zm-228.28 -7.68l29.14 -129.7c0.47,-2.1 2.28,-3.55 4.43,-3.55l18.65 0c1.83,0 3.4,1.02 4.15,2.7l25.82 57.97c0.63,1.42 1.83,2.36 3.36,2.63 1.54,0.27 2.98,-0.2 4.06,-1.32l58.38 -60.58c0.89,-0.92 1.99,-1.39 3.27,-1.39l18.31 0c1.43,0 2.66,0.59 3.55,1.7 0.89,1.11 1.2,2.44 0.89,3.84l-29.14 129.7c-0.47,2.1 -2.28,3.55 -4.43,3.55l-20.56 0c-1.43,0 -2.66,-0.59 -3.55,-1.71 -0.89,-1.12 -1.2,-2.44 -0.88,-3.84l15.02 -66.72c0.45,-2.01 -0.45,-4 -2.26,-4.99 -1.81,-0.99 -3.98,-0.66 -5.42,0.81l-43.11 44.06c-1.07,1.1 -2.49,1.56 -4,1.3 -1.51,-0.25 -2.7,-1.15 -3.35,-2.54l-18.8 -39.89c-0.84,-1.79 -2.64,-2.79 -4.61,-2.58 -1.96,0.21 -3.5,1.59 -3.94,3.52l-15.55 69.01c-0.47,2.1 -2.28,3.55 -4.43,3.55l-20.57 0c-1.43,0 -2.66,-0.59 -3.55,-1.7 -0.89,-1.11 -1.2,-2.44 -0.89,-3.84zm-139.67 -0l29.18 -129.7c0.47,-2.1 2.28,-3.55 4.43,-3.55l50.69 0c17.24,0 30.5,4.07 39.71,12.21 9.24,8.14 13.66,18.63 13.26,31.48 -0.35,11.14 -3.71,21.81 -10.1,32.02 -6.38,10.21 -16.24,18.31 -29.56,24.31l16.75 32.12c0.76,1.45 0.7,3.06 -0.14,4.46 -0.85,1.4 -2.25,2.19 -3.88,2.19l-23.48 0c-1.8,0 -3.33,-0.97 -4.1,-2.59l-14.05 -29.53c-4.83,0.29 -11.61,0.43 -20.32,0.43l-9 0c-2.15,0 -3.96,1.45 -4.43,3.55l-5.53 24.6c-0.47,2.1 -2.28,3.55 -4.43,3.55l-20.56 0c-1.43,0 -2.66,-0.59 -3.55,-1.71 -0.89,-1.11 -1.2,-2.44 -0.89,-3.84zm47.23 -51.86l20.48 0c10.46,0 19.24,-3.28 26.4,-9.85 7.13,-6.57 10.84,-14.49 11.13,-23.77 0.2,-6.57 -1.81,-11.89 -6.04,-15.96 -4.23,-4.07 -10.05,-6.1 -17.48,-6.1l-23.99 0c-2.15,0 -3.96,1.45 -4.43,3.54l-10.5 46.6c-0.31,1.39 -0.01,2.72 0.88,3.84 0.89,1.12 2.12,1.71 3.55,1.71zm-338.28 51.86l29.18 -129.7c0.47,-2.1 2.28,-3.55 4.43,-3.55l94.22 0c1.43,0 2.65,0.59 3.54,1.7 0.89,1.11 1.2,2.44 0.89,3.83l-3.7 16.61c-0.47,2.1 -2.28,3.56 -4.44,3.56l-66.4 0c-2.15,0 -3.96,1.45 -4.43,3.54l-4.32 19.18c-0.31,1.39 -0.01,2.72 0.88,3.84 0.89,1.12 2.12,1.71 3.55,1.71l51.61 0c1.43,0 2.66,0.59 3.55,1.7 0.89,1.11 1.2,2.44 0.89,3.83l-3.68 16.4c-0.47,2.1 -2.28,3.55 -4.43,3.55l-55.7 0c-2.15,0 -3.96,1.45 -4.43,3.54l-11.77 52.24c-0.47,2.1 -2.28,3.54 -4.43,3.54l-20.56 0c-1.43,0 -2.66,-0.59 -3.55,-1.71 -0.89,-1.11 -1.2,-2.44 -0.89,-3.84zm981.81 91.01l2.13 -2.39c3.36,4.09 7.76,6.14 13.22,6.14 3.81,0 6.88,-0.84 9.21,-2.52 2.33,-1.68 3.5,-3.74 3.5,-6.2 0,-1.31 -0.31,-2.46 -0.94,-3.46 -0.63,-0.99 -1.59,-1.82 -2.9,-2.47 -1.31,-0.65 -2.52,-1.14 -3.64,-1.44 -1.14,-0.31 -2.63,-0.72 -4.49,-1.22 -2.03,-0.55 -3.48,-0.95 -4.36,-1.19 -0.88,-0.24 -2.13,-0.68 -3.75,-1.34 -1.62,-0.65 -2.77,-1.31 -3.46,-1.96 -0.68,-0.65 -1.34,-1.56 -1.96,-2.73 -0.63,-1.17 -0.94,-2.49 -0.94,-3.97 0,-3.19 1.41,-5.8 4.22,-7.85 2.82,-2.05 5.99,-3.07 9.51,-3.07 5.06,0 9.55,1.62 13.48,4.86l-2.05 2.3c-3.3,-2.73 -7.02,-4.09 -11.18,-4.09 -2.9,0 -5.39,0.77 -7.46,2.3 -2.08,1.54 -3.11,3.38 -3.11,5.54 0,1.02 0.24,1.93 0.72,2.73 0.48,0.8 1.02,1.44 1.62,1.92 0.6,0.48 1.54,0.97 2.81,1.45 1.28,0.48 2.28,0.82 3,0.99 0.71,0.18 1.89,0.5 3.54,0.92 1.88,0.47 3.36,0.85 4.44,1.12 1.07,0.28 2.35,0.74 3.83,1.39 1.48,0.65 2.62,1.35 3.41,2.09 0.8,0.74 1.49,1.71 2.09,2.9 0.6,1.19 0.89,2.56 0.89,4.09 0,3.7 -1.55,6.61 -4.65,8.74 -3.1,2.13 -6.84,3.2 -11.22,3.2 -6.31,0 -11.49,-2.27 -15.53,-6.82zm-13.05 5.97l0 -40.78 3.24 0 0 40.78 -3.24 0zm-0.17 -50.25c-0.51,-0.51 -0.77,-1.14 -0.77,-1.88 0,-0.74 0.26,-1.37 0.77,-1.88 0.51,-0.51 1.14,-0.77 1.88,-0.77 0.74,0 1.36,0.26 1.88,0.77 0.51,0.51 0.77,1.14 0.77,1.88 0,0.74 -0.26,1.36 -0.77,1.88 -0.51,0.51 -1.14,0.77 -1.88,0.77 -0.74,0 -1.37,-0.26 -1.88,-0.77zm-45.64 28.24l32.5 0c-0.34,-4.61 -2.05,-8.52 -5.12,-11.73 -3.07,-3.21 -6.71,-4.82 -10.92,-4.82 -4.27,0 -7.98,1.61 -11.13,4.82 -3.16,3.21 -4.93,7.12 -5.33,11.73zm2.73 16.64c-4.09,-4.15 -6.14,-9.16 -6.14,-15.01 0,-5.86 1.95,-10.86 5.84,-15.01 3.9,-4.15 8.57,-6.23 14.03,-6.23 5.35,0 9.94,2.06 13.78,6.18 3.84,4.12 5.76,9.03 5.76,14.72l-0.09 1.79 -35.91 0c0.4,4.72 2.26,8.69 5.59,11.9 3.33,3.21 7.29,4.82 11.9,4.82 5.4,0 9.9,-2.02 13.48,-6.06l2.22 2.13c-4.38,4.66 -9.61,7 -15.7,7 -5.74,0 -10.66,-2.08 -14.76,-6.23zm-54.09 5.37l0 -56.13 3.24 0 0 24.91c1.59,-3.24 3.87,-5.79 6.83,-7.64 2.96,-1.85 6.28,-2.77 9.98,-2.77 5.57,0 10.34,2.08 14.29,6.23 3.95,4.15 5.93,9.16 5.93,15.01 0,5.86 -1.98,10.86 -5.93,15.01 -3.95,4.15 -8.72,6.23 -14.29,6.23 -3.75,0 -7.09,-0.92 -10.02,-2.77 -2.93,-1.85 -5.19,-4.39 -6.78,-7.64l0 9.55 -3.24 0zm8.1 -33.23c-3.24,3.55 -4.86,7.83 -4.86,12.84 0,5 1.62,9.28 4.86,12.84 3.24,3.56 7.22,5.33 11.94,5.33 4.72,0 8.7,-1.78 11.94,-5.33 3.24,-3.55 4.86,-7.83 4.86,-12.84 0,-5 -1.62,-9.28 -4.86,-12.84 -3.24,-3.56 -7.22,-5.33 -11.94,-5.33 -4.72,0 -8.7,1.78 -11.94,5.33zm-54.38 27.85c-3.95,-4.15 -5.93,-9.16 -5.93,-15.01 0,-5.86 1.98,-10.86 5.93,-15.01 3.95,-4.15 8.72,-6.23 14.29,-6.23 3.7,0 7.01,0.92 9.94,2.77 2.93,1.85 5.22,4.39 6.87,7.64l0 -9.55 3.24 0 0 40.78 -3.24 0 0 -9.55c-1.65,3.24 -3.94,5.79 -6.87,7.64 -2.93,1.85 -6.24,2.77 -9.94,2.77 -5.57,0 -10.34,-2.08 -14.29,-6.23zm2.35 -27.85c-3.24,3.55 -4.86,7.83 -4.86,12.84 0,5 1.62,9.28 4.86,12.84 3.24,3.56 7.22,5.33 11.94,5.33 4.66,0 8.63,-1.73 11.9,-5.2 3.27,-3.47 4.9,-7.79 4.9,-12.97 0,-5 -1.62,-9.28 -4.86,-12.84 -3.24,-3.56 -7.22,-5.33 -11.94,-5.33 -4.72,0 -8.7,1.78 -11.94,5.33zm9.21 -14.8l6.14 -9.9 4.52 0 -7.08 9.9 -3.58 0zm-42.48 35.32l0 -25 -6.23 0 0 -3.07 6.23 0 0 -10.15 3.24 0 0 10.15 15.78 0 0 3.07 -15.78 0 0 25c0,7 2.45,10.49 7.34,10.49 1.31,0 2.6,-0.23 3.88,-0.68 1.28,-0.45 2.2,-0.91 2.77,-1.36l0.94 -0.6 1.45 2.64c-2.56,2.05 -5.57,3.07 -9.04,3.07 -3.07,0 -5.6,-1.02 -7.59,-3.07 -1.99,-2.05 -2.99,-5.54 -2.99,-10.49zm-45.9 12.71l0 -40.78 3.24 0 0 7.42c3.01,-5.52 7.91,-8.28 14.67,-8.28 4.66,0 8.39,1.32 11.18,3.97 2.79,2.64 4.18,6.33 4.18,11.05l0 26.62 -3.24 0 0 -25.68c0,-8.59 -4.18,-12.88 -12.54,-12.88 -3.75,0 -7.07,1.34 -9.94,4.01 -2.87,2.67 -4.31,6 -4.31,9.98l0 24.57 -3.24 0zm-46.07 -5.37c-4.15,-4.15 -6.23,-9.16 -6.23,-15.01 0,-5.86 2.08,-10.86 6.23,-15.01 4.15,-4.15 9.16,-6.23 15.01,-6.23 5.86,0 10.86,2.08 15.01,6.23 4.15,4.15 6.23,9.16 6.23,15.01 0,5.86 -2.08,10.86 -6.23,15.01 -4.15,4.15 -9.16,6.23 -15.01,6.23 -5.86,0 -10.86,-2.08 -15.01,-6.23zm2.39 -27.85c-3.47,3.55 -5.2,7.83 -5.2,12.84 0,5 1.73,9.28 5.2,12.84 3.47,3.56 7.68,5.33 12.63,5.33 4.95,0 9.16,-1.78 12.63,-5.33 3.47,-3.55 5.2,-7.83 5.2,-12.84 0,-5 -1.73,-9.28 -5.2,-12.84 -3.47,-3.56 -7.68,-5.33 -12.63,-5.33 -4.95,0 -9.16,1.78 -12.63,5.33zm-55.28 25.72c-5.57,-5.57 -8.36,-12.28 -8.36,-20.13 0,-7.85 2.77,-14.56 8.32,-20.13 5.54,-5.57 12.24,-8.36 20.09,-8.36 7.68,0 14.27,2.67 19.79,8.02l-2.39 2.39c-4.95,-4.78 -10.72,-7.17 -17.32,-7.17 -6.88,0 -12.75,2.47 -17.62,7.42 -4.86,4.95 -7.29,10.89 -7.29,17.83 0,6.94 2.43,12.88 7.29,17.83 4.86,4.95 10.73,7.42 17.62,7.42 7.39,0 13.59,-2.82 18.6,-8.45l2.39 2.47c-5.57,6.14 -12.57,9.21 -20.99,9.21 -7.85,0 -14.56,-2.79 -20.13,-8.36zm-66.63 1.54l2.13 -2.39c3.36,4.09 7.76,6.14 13.22,6.14 3.81,0 6.88,-0.84 9.21,-2.52 2.33,-1.68 3.5,-3.74 3.5,-6.2 0,-1.31 -0.31,-2.46 -0.94,-3.46 -0.63,-0.99 -1.59,-1.82 -2.9,-2.47 -1.31,-0.65 -2.52,-1.14 -3.64,-1.44 -1.14,-0.31 -2.63,-0.72 -4.49,-1.22 -2.03,-0.55 -3.48,-0.95 -4.36,-1.19 -0.88,-0.24 -2.13,-0.68 -3.75,-1.34 -1.62,-0.65 -2.77,-1.31 -3.46,-1.96 -0.68,-0.65 -1.34,-1.56 -1.96,-2.73 -0.63,-1.17 -0.94,-2.49 -0.94,-3.97 0,-3.19 1.41,-5.8 4.22,-7.85 2.82,-2.05 5.99,-3.07 9.51,-3.07 5.06,0 9.55,1.62 13.48,4.86l-2.05 2.3c-3.3,-2.73 -7.02,-4.09 -11.18,-4.09 -2.9,0 -5.39,0.77 -7.46,2.3 -2.08,1.54 -3.11,3.38 -3.11,5.54 0,1.02 0.24,1.93 0.72,2.73 0.48,0.8 1.02,1.44 1.62,1.92 0.6,0.48 1.54,0.97 2.81,1.45 1.28,0.48 2.28,0.82 3,0.99 0.71,0.18 1.89,0.5 3.54,0.92 1.88,0.47 3.36,0.85 4.44,1.12 1.07,0.28 2.35,0.74 3.83,1.39 1.48,0.65 2.62,1.35 3.41,2.09 0.8,0.74 1.49,1.71 2.09,2.9 0.6,1.19 0.89,2.56 0.89,4.09 0,3.7 -1.55,6.61 -4.65,8.74 -3.1,2.13 -6.84,3.2 -11.22,3.2 -6.31,0 -11.49,-2.27 -15.53,-6.82zm-43.68 -16.04l32.5 0c-0.34,-4.61 -2.05,-8.52 -5.12,-11.73 -3.07,-3.21 -6.71,-4.82 -10.92,-4.82 -4.27,0 -7.98,1.61 -11.13,4.82 -3.16,3.21 -4.93,7.12 -5.33,11.73zm2.73 16.64c-4.09,-4.15 -6.14,-9.16 -6.14,-15.01 0,-5.86 1.95,-10.86 5.84,-15.01 3.9,-4.15 8.57,-6.23 14.03,-6.23 5.35,0 9.94,2.06 13.78,6.18 3.84,4.12 5.76,9.03 5.76,14.72l-0.09 1.79 -35.91 0c0.4,4.72 2.26,8.69 5.59,11.9 3.33,3.21 7.29,4.82 11.9,4.82 5.4,0 9.9,-2.02 13.48,-6.06l2.22 2.13c-4.38,4.66 -9.61,7 -15.7,7 -5.74,0 -10.66,-2.08 -14.76,-6.23zm-50.08 0c-4.15,-4.15 -6.23,-9.16 -6.23,-15.01 0,-5.86 2.08,-10.86 6.23,-15.01 4.15,-4.15 9.16,-6.23 15.01,-6.23 5.86,0 10.86,2.08 15.01,6.23 4.15,4.15 6.23,9.16 6.23,15.01 0,5.86 -2.08,10.86 -6.23,15.01 -4.15,4.15 -9.16,6.23 -15.01,6.23 -5.86,0 -10.86,-2.08 -15.01,-6.23zm2.39 -27.85c-3.47,3.55 -5.2,7.83 -5.2,12.84 0,5 1.73,9.28 5.2,12.84 3.47,3.56 7.68,5.33 12.63,5.33 4.95,0 9.16,-1.78 12.63,-5.33 3.47,-3.55 5.2,-7.83 5.2,-12.84 0,-5 -1.73,-9.28 -5.2,-12.84 -3.47,-3.56 -7.68,-5.33 -12.63,-5.33 -4.95,0 -9.16,1.78 -12.63,5.33zm3.5 -14.89c0,-1.93 0.45,-3.58 1.37,-4.95 0.91,-1.36 2.1,-2.05 3.58,-2.05 1.19,0 2.7,0.61 4.52,1.83 1.82,1.22 3.07,1.83 3.75,1.83 0.74,0 1.31,-0.36 1.71,-1.07 0.4,-0.71 0.6,-1.58 0.6,-2.6l2.82 0c0,1.93 -0.45,3.58 -1.36,4.95 -0.91,1.36 -2.1,2.05 -3.58,2.05 -1.14,0 -2.64,-0.61 -4.52,-1.83 -1.88,-1.22 -3.13,-1.83 -3.75,-1.83 -0.74,0 -1.31,0.36 -1.71,1.07 -0.4,0.71 -0.6,1.58 -0.6,2.6l-2.82 0zm-43.25 63.64l1.28 -2.13c2.05,1.37 4.46,2.05 7.25,2.05 2.1,0 3.77,-0.48 4.99,-1.45 1.22,-0.97 1.83,-2.08 1.83,-3.33 0,-2.22 -1.51,-3.33 -4.52,-3.33 -1.19,0 -2.39,0.24 -3.58,0.72 -1.19,0.48 -2.08,1.01 -2.65,1.58l-2.3 -1.11 4.61 -7.85c-5.4,-0.51 -9.94,-2.79 -13.61,-6.83 -3.67,-4.04 -5.5,-8.79 -5.5,-14.25 0,-5.86 2.08,-10.86 6.23,-15.01 4.15,-4.15 9.16,-6.23 15.01,-6.23 5.63,0 10.52,1.99 14.67,5.97l-2.22 2.22c-3.53,-3.41 -7.68,-5.12 -12.46,-5.12 -4.95,0 -9.16,1.78 -12.63,5.33 -3.47,3.55 -5.2,7.83 -5.2,12.84 0,5 1.73,9.28 5.2,12.84 3.47,3.56 7.68,5.33 12.63,5.33 5.35,0 9.84,-2.02 13.48,-6.06l2.22 2.13c-4.15,4.49 -9.24,6.83 -15.27,7l-2.97 5.36c1.34,-0.78 2.9,-1.18 4.68,-1.18 1.93,0 3.6,0.45 4.99,1.37 1.39,0.91 2.09,2.27 2.09,4.09 0,2.28 -0.98,4.07 -2.94,5.37 -1.96,1.31 -4.25,1.96 -6.87,1.96 -3.36,0 -6.17,-0.77 -8.45,-2.3zm-54.43 -29.69l0 -26.62 3.24 0 0 25.68c0,8.59 4.18,12.88 12.54,12.88 3.7,0 6.85,-1.32 9.47,-3.97 2.62,-2.64 3.92,-5.99 3.92,-10.02l0 -24.57 3.24 0 0 40.78 -3.24 0 0 -6.91c-2.84,5.18 -7.45,7.76 -13.82,7.76 -4.66,0 -8.39,-1.32 -11.18,-3.97 -2.79,-2.65 -4.18,-6.33 -4.18,-11.05zm-14.33 14.16l0 -56.13 3.24 0 0 56.13 -3.24 0zm-46.07 -5.37c-4.15,-4.15 -6.23,-9.16 -6.23,-15.01 0,-5.86 2.08,-10.86 6.23,-15.01 4.15,-4.15 9.16,-6.23 15.01,-6.23 5.86,0 10.86,2.08 15.01,6.23 4.15,4.15 6.23,9.16 6.23,15.01 0,5.86 -2.08,10.86 -6.23,15.01 -4.15,4.15 -9.16,6.23 -15.01,6.23 -5.86,0 -10.86,-2.08 -15.01,-6.23zm2.39 -27.85c-3.47,3.55 -5.2,7.83 -5.2,12.84 0,5 1.73,9.28 5.2,12.84 3.47,3.56 7.68,5.33 12.63,5.33 4.95,0 9.16,-1.78 12.63,-5.33 3.47,-3.55 5.2,-7.83 5.2,-12.84 0,-5 -1.73,-9.28 -5.2,-12.84 -3.47,-3.56 -7.68,-5.33 -12.63,-5.33 -4.95,0 -9.16,1.78 -12.63,5.33z"/>
  <path class="fil1" d="M75.05 0.03l47.08 0c5.7,0 10.91,2.53 14.78,7.17 3.87,4.64 5.32,10.1 4.11,15.48l-59.96 266.49c-1.57,6.97 -7.3,11.43 -14.68,11.43l-47.08 0c-5.69,0 -10.9,-2.53 -14.78,-7.17 -3.87,-4.64 -5.32,-10.1 -4.11,-15.48l59.96 -266.49c1.57,-6.97 7.3,-11.43 14.68,-11.43z"/>
  <path class="fil2" d="M322.44 67.11l10 -44.45c1.21,-5.38 -0.24,-10.84 -4.12,-15.48 -3.87,-4.64 -9.09,-7.17 -14.78,-7.17l-135.73 0.02c-7.38,0 -13.11,4.46 -14.68,11.43l-10 44.46c-1.21,5.38 0.24,10.84 4.12,15.48 3.87,4.64 9.09,7.17 14.78,7.17l135.73 -0.02c7.38,0 13.11,-4.46 14.68,-11.43z"/>
  <path class="fil3" d="M300.36 165.23l10 -44.46c1.21,-5.38 -0.24,-10.84 -4.11,-15.48 -3.87,-4.64 -9.09,-7.17 -14.78,-7.17l-135.74 0.02c-7.38,0 -13.11,4.46 -14.68,11.44l-10 44.45c-1.21,5.38 0.24,10.84 4.12,15.48 3.87,4.64 9.09,7.17 14.78,7.17l135.73 -0.02c7.38,0 13.11,-4.46 14.68,-11.43z"/>
 </g>
</svg>
