<?xml version="1.0" encoding="UTF-8"?>
<!DOCTYPE svg PUBLIC "-//W3C//DTD SVG 1.1//EN" "http://www.w3.org/Graphics/SVG/1.1/DTD/svg11.dtd">
<!-- Creator: CorelDRAW -->
<svg xmlns="http://www.w3.org/2000/svg" xml:space="preserve" width="20.32mm" height="5.08mm" version="1.1" style="shape-rendering:geometricPrecision; text-rendering:geometricPrecision; image-rendering:optimizeQuality; fill-rule:evenodd; clip-rule:evenodd"
viewBox="0 0 345.28 86.32"
 xmlns:xlink="http://www.w3.org/1999/xlink"
 xmlns:xodm="http://www.corel.com/coreldraw/odm/2003">
 <defs>
  <style type="text/css">
   <![CDATA[
    .fil0 {fill:none}
    .fil1 {fill:#020203;fill-rule:nonzero}
   ]]>
  </style>
 </defs>
 <g id="Camada_x0020_1">
  <metadata id="CorelCorpID_0Corel-Layer"/>
  <rect class="fil0" x="-0" y="-0" width="345.28" height="86.32"/>
  <g id="_2872609186576">
   <g>
    <g>
     <g>
      <path class="fil1" d="M55.99 21.53l-4.12 33.91 -14.72 9.01 -13.4 -9.01 -4.12 -33.91 34.39 0 1.97 0zm-0.58 -1.85l-37.64 0 4.12 36.78 15.26 10.19 16.57 -10.19 4.12 -36.78 -2.43 0z"/>
     </g>
     <g>
      <g>
       <polygon class="fil1" points="31.99,34.98 31.99,32.75 24.69,39.6 31.99,46.46 31.99,44.22 27.05,39.6 "/>
      </g>
      <g>
       <polygon class="fil1" points="25.88,38.49 24.69,39.6 31.99,46.46 31.99,44.22 "/>
      </g>
     </g>
     <g>
      <g>
       <polygon class="fil1" points="43.63,34.98 43.63,32.75 50.92,39.6 43.63,46.46 43.63,44.22 48.57,39.6 "/>
      </g>
      <g>
       <polygon class="fil1" points="49.74,38.49 50.92,39.6 43.63,46.46 43.63,44.22 "/>
      </g>
     </g>
     <g>
      <polygon class="fil1" points="40.11,33.97 43.13,32.75 35.6,45.23 32.54,46.46 "/>
     </g>
    </g>
    <g>
     <path class="fil1" d="M177.44 53.39c-3.08,0 -5.65,-0.87 -7.69,-2.61 -2.18,-1.85 -3.27,-4.26 -3.27,-7.24l0 -0.07c0,-3.01 1.07,-5.53 3.23,-7.55 2.11,-1.99 4.69,-2.98 7.73,-2.98l8.63 0c2.33,0 4.43,0.67 6.34,2.02 1.9,1.36 3.23,3.13 4.01,5.32l-1.7 0.59c-0.64,-1.84 -1.76,-3.31 -3.35,-4.43 -1.59,-1.12 -3.36,-1.69 -5.3,-1.69l-8.63 0c-2.57,0 -4.74,0.84 -6.51,2.52 -1.76,1.69 -2.65,3.77 -2.65,6.21l0 0.07c0,2.37 0.85,4.31 2.56,5.8 1.71,1.5 3.91,2.25 6.6,2.25l8.63 0c1.94,0 3.71,-0.56 5.3,-1.69 1.59,-1.12 2.71,-2.6 3.35,-4.43l1.7 0.59c-0.77,2.19 -2.11,3.96 -4.01,5.31 -1.9,1.35 -4.02,2.02 -6.34,2.02l-8.64 0z"/>
     <path class="fil1" d="M250.99 32.93c2.82,0 5.22,1 7.21,2.98 1.99,1.99 2.98,4.4 2.98,7.21l0 0.06c0,2.82 -1,5.22 -2.98,7.21 -1.99,1.99 -4.4,2.99 -7.21,2.99l-18.95 0 0 -20.45 18.95 0zm-17.14 1.82l0 16.82 17.14 0c2.31,0 4.29,-0.82 5.93,-2.45 1.64,-1.64 2.46,-3.61 2.46,-5.93l0 -0.06c0,-2.31 -0.82,-4.29 -2.46,-5.93 -1.64,-1.64 -3.61,-2.45 -5.93,-2.45l-17.14 0 0 -0.01z"/>
     <path class="fil1" d="M293.83 32.93l0 1.79 -27.64 0 0 3.67 22.87 0 0 1.78 -24.65 0 0 -7.24 29.42 0zm-4.66 12.53l0 1.79 -22.88 0 0 4.37 27.64 0 0 1.78 -29.42 0 0 -7.93 24.65 0z"/>
     <polygon class="fil1" points="132.95,32.93 132.95,51.59 156.12,51.59 156.12,53.39 131.16,53.39 131.16,32.93 "/>
     <path class="fil1" d="M127.92 39.92l0 13.47 -1.69 0 0 -10.81 -12.71 5.94 -12.71 -5.94 0 10.81 -1.69 0 0 -13.47 14.39 6.74 14.39 -6.74zm-0.49 -5.46l-13.91 6.51 -13.91 -6.51 0.71 -1.53 13.2 6.17 13.19 -6.17 0.72 1.53z"/>
     <path class="fil1" d="M218.6 32.93c2.82,0 5.22,1 7.21,2.98 1.99,1.99 2.98,4.4 2.98,7.21l0 0.06c0,2.82 -1,5.22 -2.98,7.21 -1.99,1.99 -4.4,2.99 -7.21,2.99l-8.75 0c-2.82,0 -5.22,-1 -7.21,-2.99 -1.99,-1.99 -2.98,-4.4 -2.98,-7.21l0 -0.06c0,-2.82 1,-5.22 2.98,-7.21 1.99,-1.99 4.4,-2.98 7.21,-2.98l8.75 0zm-8.75 1.82c-2.31,0 -4.28,0.82 -5.93,2.45 -1.64,1.64 -2.45,3.61 -2.45,5.93l0 0.06c0,2.31 0.82,4.29 2.45,5.93 1.64,1.64 3.61,2.45 5.93,2.45l8.75 0c2.31,0 4.29,-0.82 5.92,-2.45 1.64,-1.64 2.46,-3.61 2.46,-5.93l0 -0.06c0,-2.31 -0.82,-4.29 -2.46,-5.93 -1.63,-1.64 -3.61,-2.45 -5.92,-2.45l-8.75 0z"/>
     <path class="fil1" d="M301.3 53.39c-1.14,0 -2.11,-0.41 -2.91,-1.22 -0.81,-0.81 -1.22,-1.78 -1.22,-2.91l0 -1.3 1.78 0 0 1.3c0,0.65 0.24,1.2 0.7,1.66 0.46,0.47 1.01,0.7 1.66,0.7l22.07 0c0.65,0 1.21,-0.23 1.67,-0.7 0.46,-0.46 0.69,-1.01 0.69,-1.66l0 -0.4c0,-0.55 -0.17,-1.05 -0.52,-1.49 -0.35,-0.44 -0.8,-0.7 -1.34,-0.82l-23.44 -5.02c-0.94,-0.2 -1.72,-0.69 -2.34,-1.45 -0.62,-0.77 -0.93,-1.64 -0.93,-2.61l0 -0.4c0,-1.14 0.41,-2.11 1.22,-2.91 0.81,-0.81 1.78,-1.22 2.91,-1.22l22.06 0c1.15,0 2.12,0.41 2.93,1.22 0.81,0.81 1.22,1.78 1.22,2.91l0 1.16 -1.79 0 0 -1.16c0,-0.64 -0.23,-1.2 -0.69,-1.66 -0.46,-0.47 -1.02,-0.7 -1.67,-0.7l-22.07 0c-0.65,0 -1.19,0.23 -1.66,0.7 -0.47,0.46 -0.7,1.01 -0.7,1.66l0 0.4c0,0.56 0.18,1.05 0.53,1.49 0.35,0.44 0.8,0.7 1.34,0.82l23.43 5.02c0.95,0.2 1.72,0.69 2.34,1.45 0.62,0.77 0.93,1.64 0.93,2.61l0 0.4c0,1.14 -0.41,2.11 -1.22,2.91 -0.81,0.81 -1.78,1.22 -2.93,1.22l-22.06 0z"/>
     <polygon class="fil1" points="95.9,32.93 95.9,34.74 82.29,34.74 82.29,53.39 80.47,53.39 80.47,34.74 66.85,34.74 66.85,32.93 "/>
    </g>
   </g>
  </g>
 </g>
</svg>
