<svg width="42" height="43" viewBox="0 0 42 43" fill="none" xmlns="http://www.w3.org/2000/svg">
<path fill-rule="evenodd" clip-rule="evenodd" d="M11.5418 3.97674C7.45022 3.97674 4.04022 7.4022 4.04022 11.7442V31.2558C4.04022 35.5978 7.45022 39.0233 11.5418 39.0233H30.5217C34.6133 39.0233 38.0233 35.5978 38.0233 31.2558V11.7442C38.0233 7.4022 34.6133 3.97674 30.5217 3.97674H11.5418ZM0.0634766 11.7442C0.0634766 5.3102 5.15106 0 11.5418 0H30.5217C36.9124 0 42 5.3102 42 11.7442V31.2558C42 37.6898 36.9124 43 30.5217 43H11.5418C5.15106 43 0.0634766 37.6898 0.0634766 31.2558V11.7442Z" fill="white"/>
<path fill-rule="evenodd" clip-rule="evenodd" d="M22.2313 15.1998C20.8958 15.0031 19.5324 15.2298 18.3355 15.8466C17.1388 16.4634 16.1709 17.4378 15.5671 18.6292C14.9635 19.8205 14.7538 21.1692 14.9669 22.4843C15.1799 23.7994 15.8054 25.0164 16.7568 25.9614C17.7084 26.9065 18.9376 27.5313 20.2705 27.7443C21.6034 27.9573 22.9695 27.7473 24.174 27.1451C25.3784 26.5431 26.3584 25.5804 26.9769 24.3964C27.5954 23.2126 27.8218 21.8665 27.6251 20.5489C27.4244 19.2049 26.7936 17.9585 25.8231 16.9947C24.8525 16.0306 23.5935 15.4004 22.2313 15.1998ZM16.5138 12.3117C18.4506 11.3135 20.6539 10.9478 22.8107 11.2655C25.0108 11.5895 27.0497 12.608 28.6255 14.1731C30.2015 15.7384 31.2306 17.7676 31.5582 19.9617C31.8794 22.1128 31.5093 24.3091 30.5017 26.2378C29.4942 28.1663 27.9015 29.7277 25.9522 30.7022C24.0032 31.6765 21.7956 32.0152 19.6428 31.6712C17.49 31.3271 15.4992 30.3173 13.9544 28.7829C12.4094 27.2484 11.3891 25.2671 11.0413 23.1203C10.6935 20.9733 11.0363 18.7726 12.0199 16.8316C13.0034 14.8909 14.5767 13.31 16.5138 12.3117Z" fill="white"/>
<path fill-rule="evenodd" clip-rule="evenodd" d="M28.7141 9.4202C28.7141 8.17231 29.7257 7.16069 30.9736 7.16069H30.9956C32.2435 7.16069 33.2551 8.17231 33.2551 9.4202C33.2551 10.6681 32.2435 11.6797 30.9956 11.6797H30.9736C29.7257 11.6797 28.7141 10.6681 28.7141 9.4202Z" fill="white"/>
</svg>
