<svg width="124" height="124" viewBox="0 0 124 124" fill="none" xmlns="http://www.w3.org/2000/svg">
<rect width="124" height="124" rx="23" fill="#E53625"/>
<path d="M64.6755 30.9057L70.2361 35.1586C71.6704 36.2553 73.3662 36.9578 75.1557 37.1964L82.0954 38.1213C84.0657 38.384 85.6161 39.9342 85.8787 41.9047L86.8038 48.8442C87.0423 50.6337 87.7449 52.3297 88.8416 53.7638L93.0943 59.3247C94.3019 60.9037 94.3019 63.0961 93.0943 64.6751L88.8416 70.2361C87.7449 71.6704 87.0423 73.3662 86.8038 75.1557L85.8787 82.0954C85.6161 84.0657 84.0657 85.6161 82.0954 85.8787L75.1557 86.8038C73.3665 87.0423 71.6704 87.7445 70.2361 88.8413L64.6755 93.0943C63.0961 94.3019 60.904 94.3019 59.3246 93.0943L53.7638 88.8413C52.3297 87.7445 50.6337 87.0423 48.8442 86.8038L41.9048 85.8787C39.9342 85.6161 38.384 84.0657 38.1213 82.0954L37.1964 75.1557C36.9579 73.3662 36.2553 71.6704 35.1586 70.2361L30.9057 64.6751C29.6981 63.0961 29.6981 60.9037 30.9057 59.3247L35.1586 53.7638C36.2553 52.3297 36.9579 50.6337 37.1964 48.8442L38.1213 41.9047C38.384 39.9342 39.9342 38.384 41.9048 38.1213L48.8442 37.1964C50.6337 36.9578 52.3297 36.2553 53.7638 35.1586L59.3246 30.9057C60.904 29.6981 63.0961 29.6981 64.6755 30.9057Z" stroke="white" stroke-width="5"/>
<path fill-rule="evenodd" clip-rule="evenodd" d="M70.7678 53.2322C71.7441 54.2085 71.7441 55.7915 70.7678 56.7678L56.7678 70.7678C55.7915 71.7441 54.2085 71.7441 53.2322 70.7678C52.2559 69.7915 52.2559 68.2085 53.2322 67.2322L67.2322 53.2322C68.2085 52.2559 69.7915 52.2559 70.7678 53.2322Z" fill="white"/>
<path d="M54.5 58C56.433 58 58 56.433 58 54.5C58 52.567 56.433 51 54.5 51C52.567 51 51 52.567 51 54.5C51 56.433 52.567 58 54.5 58Z" fill="white"/>
<path d="M69.5 73C71.433 73 73 71.433 73 69.5C73 67.567 71.433 66 69.5 66C67.567 66 66 67.567 66 69.5C66 71.433 67.567 73 69.5 73Z" fill="white"/>
</svg>
