<svg width="124" height="124" viewBox="0 0 124 124" fill="none" xmlns="http://www.w3.org/2000/svg">
<rect width="124" height="124" rx="23" fill="#182933"/>
<path fill-rule="evenodd" clip-rule="evenodd" d="M63.5103 32.7736C63.6353 31.3986 64.8513 30.3852 66.2264 30.5102L66 33C66.2264 30.5102 66.2278 30.5104 66.2293 30.5105L66.2323 30.5108L66.2389 30.5114L66.254 30.5129L66.2922 30.5169C66.3212 30.5201 66.3571 30.5242 66.3997 30.5297C66.4851 30.5406 66.5977 30.5566 66.736 30.5797C67.0128 30.6258 67.3929 30.7002 67.8658 30.8184C68.8119 31.0549 70.1274 31.4666 71.7279 32.1779C74.9348 33.6032 79.252 36.2164 84.0178 40.9822C88.7836 45.748 91.3968 50.0653 92.8221 53.2721C93.5334 54.8726 93.9451 56.1881 94.1816 57.1343C94.2999 57.6071 94.3742 57.9872 94.4203 58.264C94.4434 58.4024 94.4594 58.5149 94.4703 58.6003C94.4758 58.643 94.48 58.6789 94.4831 58.7078L94.4871 58.746L94.4886 58.7611L94.4892 58.7677L94.4895 58.7708C94.4896 58.7722 94.4898 58.7736 92 59L94.4898 58.7736C94.6148 60.1487 93.6014 61.3647 92.2264 61.4897C90.8585 61.6141 89.648 60.6119 89.5124 59.2478C89.512 59.2452 89.5115 59.2408 89.5107 59.2346C89.5077 59.2108 89.5008 59.1609 89.4883 59.086C89.4634 58.9362 89.4158 58.6866 89.3309 58.3469C89.1612 57.6681 88.8417 56.6273 88.253 55.3028C87.0783 52.6597 84.8164 48.8519 80.4823 44.5177C76.1481 40.1836 72.3403 37.9217 69.6972 36.747C68.3727 36.1583 67.3319 35.8388 66.6531 35.6691C66.3134 35.5842 66.0638 35.5366 65.914 35.5117C65.8391 35.4992 65.7892 35.4923 65.7654 35.4893C65.7591 35.4885 65.7547 35.488 65.7521 35.4877C64.388 35.3519 63.386 34.1415 63.5103 32.7736ZM50.4392 45.4958C48.5161 42.0501 43.3357 41.2437 39.7657 44.8137C37.2509 47.3285 35.625 50.0958 35.5195 52.8773C35.3063 58.5027 36.6942 68.3185 46.6878 78.3123C56.6816 88.3061 66.4974 89.6939 72.1227 89.4804C74.904 89.3752 77.6716 87.7492 80.1863 85.2345M80.1863 85.2345C83.7562 81.6642 82.9499 76.4839 79.5041 74.5609L75.7246 72.4517C73.4006 71.1547 70.1284 71.5941 67.8274 73.895L67.8263 73.8962L66.0597 72.1273C67.8263 73.8962 67.8247 73.8978 67.8231 73.8994L67.8198 73.9027L67.8129 73.9094L67.798 73.9241C67.7875 73.9343 67.7759 73.9454 67.7632 73.9573C67.7378 73.9812 67.7081 74.0085 67.6739 74.0387C67.6057 74.0991 67.5195 74.1715 67.4153 74.2517C67.2075 74.4116 66.9249 74.6052 66.5678 74.7963C65.8495 75.1808 64.83 75.5544 63.5382 75.6175C60.8818 75.7472 57.6773 74.5536 54.0619 70.9382C50.4457 67.3219 49.2517 64.1173 49.3818 61.4606C49.4451 60.1687 49.8192 59.1492 50.204 58.4309C50.3953 58.0739 50.5891 57.7913 50.7492 57.5836C50.8294 57.4795 50.9018 57.3933 50.9623 57.3251C50.9925 57.2909 51.0198 57.2612 51.0438 57.2358C51.0513 57.2279 51.0584 57.2203 51.0652 57.2132C51.0693 57.209 51.0732 57.205 51.077 57.201L51.0917 57.1861L51.0985 57.1792L51.1017 57.1759C51.1033 57.1743 51.1049 57.1727 52.8728 58.9404L51.1049 57.1727C53.4058 54.8719 53.8454 51.5993 52.5484 49.2754L50.4392 45.4958C50.4392 45.4958 50.4392 45.4959 50.4392 45.4958M54.7005 60.6478C54.6827 60.6722 54.6496 60.7208 54.6113 60.7923C54.5204 60.962 54.3975 61.2638 54.3759 61.7052C54.3362 62.5153 54.6206 64.4257 57.5975 67.4027C60.573 70.3782 62.4836 70.6631 63.2943 70.6235C63.7362 70.6019 64.0384 70.4789 64.2084 70.388C64.2799 70.3497 64.3285 70.3167 64.353 70.2988C68.0496 66.6523 73.6882 65.5892 78.1613 68.0855L81.9406 70.1948C88.796 74.0204 89.2058 83.2857 83.7219 88.7699C80.7962 91.6957 76.8985 94.3032 72.3122 94.4769C65.5349 94.734 54.2874 92.983 43.1523 81.8478C32.0173 70.7127 30.2662 59.4653 30.5231 52.6878C30.697 48.1016 33.3043 44.204 36.2302 41.2782C36.2302 41.2782 36.2302 41.2782 36.2302 41.2782M36.2302 41.2782C41.7143 35.794 50.9796 36.2042 54.8053 43.0592L56.9145 46.8387C56.9145 46.8388 56.9145 46.8387 56.9145 46.8387C59.411 51.312 58.3476 56.9513 54.7005 60.6478M63.5962 44.3132C63.9755 42.9856 65.3592 42.2169 66.6868 42.5962L66 45C66.6868 42.5962 66.688 42.5965 66.6892 42.5968L66.6916 42.5975L66.6967 42.599L66.7078 42.6023L66.7336 42.6099C66.7524 42.6156 66.7743 42.6224 66.7993 42.6304C66.8493 42.6464 66.9117 42.6672 66.986 42.6936C67.1347 42.7463 67.3311 42.8213 67.5718 42.9245C68.0536 43.131 68.7114 43.4496 69.5192 43.9277C71.1363 44.8847 73.3428 46.4739 75.9345 49.0656C78.5261 51.6573 80.1152 53.8638 81.0722 55.4808C81.5503 56.2886 81.869 56.9464 82.0755 57.4281C82.1786 57.6689 82.2536 57.8652 82.3064 58.0139C82.3328 58.0883 82.3536 58.1506 82.3696 58.2006C82.3776 58.2256 82.3844 58.2475 82.39 58.2663L82.3977 58.2921L82.401 58.3032L82.4031 58.3107C82.4035 58.3119 82.4038 58.3131 80 59L82.4038 58.3131C82.7832 59.6406 82.0145 61.0244 80.687 61.4038C79.3703 61.78 77.9983 61.027 77.6058 59.7194C77.604 59.7139 77.6002 59.7027 77.5943 59.6862C77.5769 59.6371 77.5407 59.5399 77.4798 59.3979C77.3581 59.114 77.1372 58.6489 76.7694 58.0275C76.0347 56.7862 74.7071 54.9094 72.3989 52.6011C70.0907 50.2928 68.2139 48.9652 66.9726 48.2306C66.3512 47.8628 65.8862 47.6419 65.6022 47.5202C65.4602 47.4594 65.3631 47.4231 65.314 47.4057C65.2975 47.3999 65.2864 47.3961 65.2808 47.3943C63.9732 47.0019 63.22 45.6299 63.5962 44.3132ZM77.599 59.6964C77.5987 59.6953 77.5984 59.6943 77.5981 59.6932C77.5977 59.6919 77.5973 59.6905 77.5969 59.6892C77.5969 59.6892 77.5969 59.6891 77.5969 59.6892L77.5976 59.6914L77.5981 59.6932L77.599 59.6964Z" fill="white"/>
</svg>
