<svg width="43" height="43" viewBox="0 0 43 43" fill="none" xmlns="http://www.w3.org/2000/svg">
<path fill-rule="evenodd" clip-rule="evenodd" d="M11.6053 0C5.21454 0 0.126953 5.3102 0.126953 11.7442V31.2558C0.126953 37.6898 5.21454 43 11.6053 43H30.5852C36.9759 43 42.0635 37.6898 42.0635 31.2558V11.7442C42.0635 5.3102 36.9759 0 30.5852 0H11.6053ZM4.10369 11.7442C4.10369 7.4022 7.51369 3.97674 11.6053 3.97674H30.5852C34.6767 3.97674 38.0867 7.4022 38.0867 11.7442V31.2558C38.0867 35.5978 34.6767 39.0233 30.5852 39.0233H26.4127V26.0741H29.8412L32.127 20.3333H26.4127V17.1185C26.4127 16.3148 26.9841 15.7407 27.7841 15.7407H30.9841V10H26.4127C23.2127 10 20.6984 12.5259 20.6984 15.7407V20.3333H16.127V26.0741H20.6984V39.0233H11.6053C7.51369 39.0233 4.10369 35.5978 4.10369 31.2558V11.7442Z" fill="white"/>
</svg>
