<svg width="124" height="124" viewBox="0 0 124 124" fill="none" xmlns="http://www.w3.org/2000/svg">
<rect width="124" height="124" rx="23" fill="#3739FE"/>
<path d="M64.0547 43.125C64.0547 41.7443 62.9354 40.625 61.5547 40.625C60.174 40.625 59.0547 41.7443 59.0547 43.125V43.4207C56.0492 43.9873 53.6797 46.7062 53.6797 49.8438C53.6797 53.3745 56.6802 56.375 60.2109 56.375H62.8984C63.6677 56.375 64.4297 57.137 64.4297 57.9062C64.4297 58.6755 63.6677 59.4375 62.8984 59.4375H58.8672C57.4865 59.4375 56.3672 60.5568 56.3672 61.9375C56.3672 63.3182 57.4865 64.4375 58.8672 64.4375H59.0547V64.625C59.0547 66.0057 60.174 67.125 61.5547 67.125C62.9354 67.125 64.0547 66.0057 64.0547 64.625V64.3293C67.0601 63.7627 69.4297 61.0438 69.4297 57.9062C69.4297 54.3755 66.4291 51.375 62.8984 51.375H60.2109C59.4417 51.375 58.6797 50.613 58.6797 49.8438C58.6797 49.0745 59.4417 48.3125 60.2109 48.3125H64.2422C65.6229 48.3125 66.7422 47.1932 66.7422 45.8125C66.7422 44.4318 65.6229 43.3125 64.2422 43.3125H64.0547V43.125Z" fill="white"/>
<path fill-rule="evenodd" clip-rule="evenodd" d="M39.2349 33.8099C42.6484 27.9139 48.8583 24.5 55.3734 24.5H67.7359C74.5432 24.5 80.4726 27.9339 83.8745 33.8099L83.8782 33.8163L90.0558 44.5599L90.0577 44.5633C93.4599 50.4425 93.4599 57.3075 90.0577 63.1867L90.0558 63.1901L83.8782 73.9337L83.8745 73.9401C82.8657 75.6826 81.6127 77.2082 80.1797 78.4931V96.875C80.1797 97.7414 79.7311 98.5461 78.994 99.0016C78.257 99.4571 77.3366 99.4986 76.5617 99.1111L61.5547 91.6076L46.5477 99.1111C45.7727 99.4986 44.8524 99.4571 44.1154 99.0016C43.3783 98.5461 42.9297 97.7414 42.9297 96.875V78.4931C41.4967 77.2082 40.2437 75.6826 39.2349 73.9401L39.2312 73.9337L33.0536 63.1901L33.0517 63.1867C29.6494 57.3075 29.6494 50.4425 33.0517 44.5633L33.0536 44.5599L39.2349 33.8099ZM67.7359 83.25C70.3167 83.25 72.8496 82.7143 75.1797 81.7009V92.8299L62.6727 86.5764C61.9689 86.2245 61.1405 86.2245 60.4367 86.5764L47.9297 92.8299V81.7009C50.2598 82.7143 52.7927 83.25 55.3734 83.25H67.7359ZM43.5636 36.3123L43.562 36.3151L37.3845 47.0587L37.3808 47.0651C34.8731 51.3965 34.8731 56.3535 37.3808 60.6849L37.3845 60.6913L43.562 71.4349L43.5637 71.4379C46.0631 75.7525 50.6022 78.25 55.3734 78.25H67.7359C72.5071 78.25 77.0461 75.7526 79.5455 71.4381L79.5474 71.4349L85.7249 60.6913L85.7286 60.6849C88.2363 56.3535 88.2363 51.3965 85.7286 47.0651L85.7249 47.0587L79.5474 36.3151L79.5456 36.312C77.0348 31.9774 72.7525 29.5 67.7359 29.5H55.3734C50.6021 29.5 46.063 31.9975 43.5636 36.3123Z" fill="white"/>
</svg>
