<svg width="58" height="58" viewBox="0 0 58 58" fill="none" xmlns="http://www.w3.org/2000/svg">
<path d="M22.6222 7.27756L24.7314 11.0571C26.635 14.4679 25.8709 18.9423 22.8728 21.9404C22.8728 21.9404 19.2366 25.5772 25.8296 32.1704C32.4206 38.7615 36.0596 35.1273 36.0596 35.1273C39.0578 32.1292 43.532 31.3651 46.9429 33.2686L50.7223 35.3779C55.8729 38.2522 56.481 45.475 51.9541 50.0023C49.2338 52.7225 45.9013 54.8392 42.2174 54.9787C36.0161 55.214 25.4845 53.6445 14.92 43.0801C4.35568 32.5156 2.78619 21.984 3.02129 15.7826C3.16095 12.0987 5.27761 8.76626 7.99789 6.04601C12.525 1.51891 19.7478 2.12718 22.6222 7.27756Z" stroke="white" stroke-width="5" stroke-linecap="round"/>
</svg>
