<svg width="63" height="76" viewBox="0 0 63 76" fill="none" xmlns="http://www.w3.org/2000/svg">
<path d="M34.0547 19.125C34.0547 17.7443 32.9354 16.625 31.5547 16.625C30.174 16.625 29.0547 17.7443 29.0547 19.125V19.4207C26.0492 19.9873 23.6797 22.7062 23.6797 25.8438C23.6797 29.3745 26.6802 32.375 30.2109 32.375H32.8984C33.6677 32.375 34.4297 33.137 34.4297 33.9062C34.4297 34.6755 33.6677 35.4375 32.8984 35.4375H28.8672C27.4865 35.4375 26.3672 36.5568 26.3672 37.9375C26.3672 39.3182 27.4865 40.4375 28.8672 40.4375H29.0547V40.625C29.0547 42.0057 30.174 43.125 31.5547 43.125C32.9354 43.125 34.0547 42.0057 34.0547 40.625V40.3293C37.0601 39.7627 39.4297 37.0438 39.4297 33.9062C39.4297 30.3755 36.4291 27.375 32.8984 27.375H30.2109C29.4417 27.375 28.6797 26.613 28.6797 25.8438C28.6797 25.0745 29.4417 24.3125 30.2109 24.3125H34.2422C35.6229 24.3125 36.7422 23.1932 36.7422 21.8125C36.7422 20.4318 35.6229 19.3125 34.2422 19.3125H34.0547V19.125Z" fill="white"/>
<path fill-rule="evenodd" clip-rule="evenodd" d="M9.23487 9.80991C12.6484 3.91388 18.8583 0.5 25.3734 0.5H37.7359C44.5432 0.5 50.4726 3.9339 53.8745 9.80991L53.8782 9.81632L60.0558 20.5599L60.0577 20.5633C63.4599 26.4425 63.4599 33.3075 60.0577 39.1867L60.0558 39.1901L53.8782 49.9337L53.8745 49.9401C52.8657 51.6826 51.6127 53.2082 50.1797 54.4931V72.875C50.1797 73.7414 49.7311 74.5461 48.994 75.0016C48.257 75.4571 47.3366 75.4986 46.5617 75.1111L31.5547 67.6076L16.5477 75.1111C15.7727 75.4986 14.8524 75.4571 14.1154 75.0016C13.3783 74.5461 12.9297 73.7414 12.9297 72.875V54.4931C11.4967 53.2082 10.2437 51.6826 9.23487 49.9401L9.23117 49.9337L3.05362 39.1901L3.05168 39.1867C-0.350559 33.3075 -0.350559 26.4425 3.05168 20.5633L3.05362 20.5599L9.23487 9.80991ZM37.7359 59.25C40.3167 59.25 42.8496 58.7143 45.1797 57.7009V68.8299L32.6727 62.5764C31.9689 62.2245 31.1405 62.2245 30.4367 62.5764L17.9297 68.8299V57.7009C20.2598 58.7143 22.7927 59.25 25.3734 59.25H37.7359ZM13.5636 12.3123L13.562 12.3151L7.38445 23.0587L7.38075 23.0651C4.87308 27.3965 4.87308 32.3535 7.38075 36.6849L7.38446 36.6913L13.562 47.4349L13.5637 47.4379C16.0631 51.7525 20.6022 54.25 25.3734 54.25H37.7359C42.5071 54.25 47.0461 51.7526 49.5455 47.4381L49.5474 47.4349L55.7249 36.6913L55.7286 36.6849C58.2363 32.3535 58.2363 27.3965 55.7286 23.0651L55.7249 23.0587L49.5474 12.3151L49.5456 12.312C47.0348 7.97744 42.7525 5.5 37.7359 5.5H25.3734C20.6021 5.5 16.063 7.99753 13.5636 12.3123Z" fill="white"/>
</svg>
